<svg xmlns="http://www.w3.org/2000/svg" width="48" height="48" viewBox="0 0 48 48"><path fill="#343434" d="M6.623 46.344h34.754a4.965 4.965 0 0 0 4.966-4.966V6.621a4.965 4.965 0 0 0-4.966-4.965H6.623a4.966 4.966 0 0 0-4.966 4.965v34.757a4.968 4.968 0 0 0 4.966 4.966z"/><path fill="#F3961D" d="M26.921 12.683H9.507a8.965 8.965 0 0 1 2.655-4.451h12.103a8.972 8.972 0 0 1 2.656 4.451z"/><path fill="#D32F2E" d="M15.556 5.854c2.339 0 4.451.914 6.051 2.378H9.504c1.6-1.464 3.712-2.378 6.052-2.378z"/><path fill="#FBC013" d="M29.364 14.853c0 .793-.136 1.55-.328 2.281H11.694c-.192-.731-.328-1.488-.328-2.281 0-.752.12-1.472.293-2.17h17.414c.173.698.291 1.418.291 2.17z"/><path fill="#24B7CF" d="M24.129 23.852c-2.275 0-4.331-.872-5.915-2.267h11.832c-1.586 1.394-3.641 2.267-5.917 2.267z"/><path fill="#CCD642" d="M28.423 21.585H16.592a8.942 8.942 0 0 1-2.756-4.451h17.343a8.955 8.955 0 0 1-2.756 4.451z"/><path fill="#4D8EC7" d="M19.094 28.373c4.433 0 8.484.806 11.622 2.132H7.476c3.135-1.326 7.186-2.132 11.618-2.132z"/><path fill="#A45D9D" d="M7.476 39.417h35.995v2.378H7.476z"/><path fill="#61539A" d="M41.747 37.296v2.111H5.75v-2.111c0-.81.234-1.594.636-2.341h34.726c.402.747.635 1.531.635 2.341z"/><path fill="#5565A8" d="M39.256 34.955H4.529c.942-1.754 2.91-3.294 5.573-4.45h23.581c2.663 1.156 4.63 2.696 5.573 4.45z"/></svg>