<svg xmlns="http://www.w3.org/2000/svg" width="192" height="192" viewBox="0 0 192 192"><path fill="#343434" d="M22.957 190.043h146.449c11.564 0 20.922-9.368 20.922-20.923V22.666c0-11.554-9.357-20.922-20.922-20.922H22.957c-11.503 0-20.922 9.318-20.922 20.922V169.12c0 11.555 9.378 20.923 20.922 20.923z"/><path fill="#F3961D" d="M119.424 47.971H46.047c1.829-7.345 5.772-13.801 11.187-18.757h50.998a37.828 37.828 0 0 1 11.192 18.757z"/><path fill="#D32F2E" d="M78.794 19.192c9.858 0 18.755 3.851 25.498 10.021H53.295c6.743-6.17 15.64-10.021 25.499-10.021z"/><path fill="#FBC013" d="M123.184 57.113c0 3.34-.572 6.529-1.38 9.614H48.729c-.812-3.085-1.384-6.273-1.384-9.614 0-3.167.505-6.201 1.236-9.143h73.376c.726 2.943 1.227 5.976 1.227 9.143z"/><path fill="#24B7CF" d="M94.491 95.035c-9.593 0-18.251-3.678-24.927-9.552h49.86c-6.681 5.874-15.341 9.552-24.933 9.552z"/><path fill="#CCD642" d="M114.756 85.483H64.901c-5.579-4.904-9.665-11.36-11.611-18.756h73.08c-1.95 7.396-6.036 13.852-11.614 18.756z"/><path fill="#4D8EC7" d="M90.279 114.322c18.68 0 35.751 3.392 48.97 8.979H41.32c13.214-5.587 30.285-8.979 48.959-8.979z"/><path fill="#A45D9D" d="M26.88 160.854h151.679v10.022H26.88z"/><path fill="#61539A" d="M174.698 151.917v8.897H23.019v-8.897c0-3.413.985-6.712 2.677-9.858h146.326c1.695 3.146 2.676 6.445 2.676 9.858z"/><path fill="#5565A8" d="M169.346 142.059H23.019c3.974-7.396 12.263-13.883 23.485-18.757h99.365c11.217 4.874 19.512 11.361 23.477 18.757z"/></svg>