<svg xmlns="http://www.w3.org/2000/svg" width="96" height="96" viewBox="0 0 96 96"><path fill="#343434" d="M13.399 92.489H82.6a9.884 9.884 0 0 0 9.887-9.887V13.397A9.884 9.884 0 0 0 82.6 3.511H13.399c-5.436 0-9.887 4.402-9.887 9.886v69.205c.001 5.46 4.432 9.887 9.887 9.887z"/><path fill="#F3961D" d="M53.815 25.467H19.142a17.848 17.848 0 0 1 5.287-8.863h24.098a17.867 17.867 0 0 1 5.288 8.863z"/><path fill="#D32F2E" d="M31.187 11.868c4.658 0 8.862 1.819 12.049 4.735H19.137c3.186-2.915 7.39-4.735 12.05-4.735z"/><path fill="#FBC013" d="M58.681 29.787c0 1.578-.271 3.085-.652 4.543h-34.53c-.383-1.458-.653-2.965-.653-4.543 0-1.497.239-2.931.584-4.32h34.673c.341 1.389.578 2.823.578 4.32z"/><path fill="#24B7CF" d="M48.257 47.706c-4.532 0-8.624-1.737-11.778-4.514h23.56c-3.157 2.777-7.25 4.514-11.782 4.514z"/><path fill="#CCD642" d="M56.806 43.192H33.249a17.804 17.804 0 0 1-5.487-8.862h34.533a17.829 17.829 0 0 1-5.489 8.862z"/><path fill="#4D8EC7" d="M38.231 56.709c8.826 0 16.894 1.603 23.14 4.243H15.097c6.244-2.64 14.31-4.243 23.134-4.243z"/><path fill="#A45D9D" d="M15.097 78.697H86.77v4.735H15.097z"/><path fill="#61539A" d="M83.336 74.474v4.205H11.662v-4.205c0-1.612.466-3.172 1.266-4.658h69.144c.8 1.486 1.264 3.045 1.264 4.658z"/><path fill="#5565A8" d="M78.375 69.815H9.23c1.877-3.494 5.795-6.561 11.098-8.863h46.953c5.301 2.303 9.22 5.369 11.094 8.863z"/></svg>