<svg xmlns="http://www.w3.org/2000/svg" width="168" height="168" viewBox="0 0 168 168"><path fill="#343434" d="M20.498 165.649h127.004c10.029 0 18.145-8.124 18.145-18.145V20.495c0-10.02-8.115-18.145-18.145-18.145H20.498c-9.976 0-18.145 8.081-18.145 18.145v127.01c.001 10.02 8.133 18.144 18.145 18.144z"/><path fill="#F3961D" d="M104.156 42.44H40.521c1.587-6.37 5.007-11.969 9.702-16.267H94.45a32.806 32.806 0 0 1 9.706 16.267z"/><path fill="#D32F2E" d="M68.922 17.483c8.549 0 16.265 3.34 22.112 8.691H46.808c5.847-5.351 13.563-8.691 22.114-8.691z"/><path fill="#FBC013" d="M107.417 50.369c0 2.897-.496 5.662-1.197 8.337H42.848c-.704-2.675-1.2-5.44-1.2-8.337 0-2.747.438-5.377 1.072-7.929h63.634c.628 2.552 1.063 5.183 1.063 7.929z"/><path fill="#24B7CF" d="M82.534 83.256c-8.319 0-15.828-3.189-21.617-8.284h43.239c-5.794 5.094-13.303 8.284-21.622 8.284z"/><path fill="#CCD642" d="M100.108 74.972H56.873c-4.838-4.253-8.382-9.852-10.069-16.266h63.377a32.72 32.72 0 0 1-10.073 16.266z"/><path fill="#4D8EC7" d="M78.882 99.982c16.199 0 31.004 2.941 42.468 7.787H36.423c11.46-4.845 26.264-7.787 42.459-7.787z"/><path fill="#A45D9D" d="M23.899 140.337h131.54v8.691H23.899z"/><path fill="#61539A" d="M152.092 132.586v7.716H20.551v-7.716c0-2.96.854-5.821 2.321-8.55H149.77c1.47 2.729 2.322 5.59 2.322 8.55z"/><path fill="#5565A8" d="M147.45 124.036H20.551c3.446-6.414 10.636-12.04 20.367-16.267h86.173c9.727 4.227 16.921 9.853 20.359 16.267z"/></svg>